# xmcd
#
# Track frame offsets:
#	150
#	15250
#	27392
#	45720
#	60367
#	77272
#	91727
#	107830
#	121995
#	133545
#	147852
#	162660
#	178902
#	194047
#	209905
#	237887
#	250127
#	264087
#	279932
#	296452
#
# Disc length: 4151
#
# Revision: 3
# Processed by: cddbd v1.5.1PL0 Copyright (c) Steve Scherf et al.
# Submitted via: CDex 1.30Release
# Normalized: r1:TDELIM( - ),TSWAP
#
DISCID=17103514
DTITLE=Various Artist - Today's Country Classics Vol. 1 and 2
DYEAR=1900
DGENRE=Country
TTITLE0=George Strait - The Cowboy Rides Away
TTITLE1=Reba McEntire - How Blue
TTITLE2=Oak Ridge Boys - Make My Life With You
TTITLE3=Razzy Bailey - Knock On Wood
TTITLE4=Ray Stevens - Mississippi Squirrel Revival
TTITLE5=John Schneider - Country Girls
TTITLE6=Atlanta - Sweet Country Music
TTITLE7=Steve Waariner - What I Didn't Do
TTITLE8=Barbara Mandrell - Happy Birthday Dear Heartache
TTITLE9=Lee Greenwood - God Bless The USA
TTITLE10=Steve Wariner - Life's Highway
TTITLE11=Barbara Mandrell - Fast Lanes And Country Roads
TTITLE12=John Schneider - You're The Last Thing I Needed Tonight
TTITLE13=Mac Davis - Sexy Young Girl
TTITLE14=Ray Stevens - The Haircut Song
TTITLE15=Waylon Jennings - Working Without A Net
TTITLE16=Lee Greenwood - Don't Underestimate My Love For You
TTITLE17=The Oak Ridge Boys - Juliet
TTITLE18=Reba McEntire - Only In My Mind
TTITLE19=George Strait - You're Something Special To Me
EXTD=ID3G:   2
EXTT0=
EXTT1=
EXTT2=
EXTT3=
EXTT4=
EXTT5=
EXTT6=
EXTT7=
EXTT8=
EXTT9=
EXTT10=
EXTT11=
EXTT12=
EXTT13=
EXTT14=
EXTT15=
EXTT16=
EXTT17=
EXTT18=
EXTT19=
PLAYORDER=
